Coordinates
version=1
nRows=12
nColumns=24
inDegrees=yes

Units are S.I. units (second, meters, Newtons, ...)
Angles are in degrees.

endheader
time	pelvis_tilt	pelvis_list	pelvis_rotation	pelvis_tx	pelvis_ty	pelvis_tz	hip_flexion_r	hip_adduction_r	hip_rotation_r	knee_angle_r	ankle_angle_r	subtalar_angle_r	mtp_angle_r	hip_flexion_l	hip_adduction_l	hip_rotation_l	knee_angle_l	ankle_angle_l	subtalar_angle_l	mtp_angle_l	lumbar_extension	lumbar_bending	lumbar_rotation
      7.00000000	      7.15895268	     -5.47597091	     -4.04176256	     -0.84052088	      0.92996227	      0.18583921	    -18.83226245	      8.12909127	     -1.56487020	    -17.60711165	     11.72007911	      4.56335575	      0.00000000	      8.74709809	     -1.61014411	     -0.96544353	     -5.91638986	     -4.62685029	     -4.19415184	      0.00000000	    -24.38910598	      2.84662552	     12.38875268
      7.01000000	      7.31348091	     -5.23842328	     -4.01228719	     -0.82972190	      0.93126810	      0.18496379	    -18.23416376	      7.61766325	     -2.26720243	    -19.99892148	      9.98289379	      4.63398263	      0.00000000	      8.38178310	     -1.20837407	     -0.50888299	     -6.77477450	     -4.41470230	     -5.01239467	      0.00000000	    -24.36026312	      2.59502339	     12.23010804
      7.02000000	      7.47659688	     -5.01179871	     -3.94406411	     -0.81903766	      0.93262585	      0.18401981	    -17.46457152	      7.09665390	     -3.07667055	    -22.60611479	      7.83642466	      4.53835437	      0.00000000	      8.00175242	     -0.81322239	     -0.31581498	     -7.65570744	     -3.81765226	     -5.47408385	      0.00000000	    -24.36614831	      2.38466528	     11.94790833
      7.03000000	      7.51960623	     -4.81146166	     -3.88759013	     -0.80850602	      0.93378251	      0.18304179	    -16.37321400	      6.58761417	     -3.84309169	    -25.44095951	      5.30307969	      4.13180106	      0.00000000	      7.67569893	     -0.43609938	     -0.04166499	     -8.42821979	     -3.02390381	     -6.04137999	      0.00000000	    -24.24549126	      2.24159719	     11.59925334
      7.04000000	      7.53685685	     -4.61539243	     -3.88512127	     -0.79819470	      0.93484317	      0.18210250	    -15.08541185	      6.05457544	     -4.48221356	    -28.42732399	      2.28115484	      3.35557229	      0.00000000	      7.29673162	     -0.06576067	      0.16546362	     -9.06006593	     -2.21162424	     -6.46055580	      0.00000000	    -24.13934699	      2.09826322	     11.31470233
      7.05000000	      7.51742017	     -4.42103790	     -3.93400220	     -0.78811218	      0.93573692	      0.18120963	    -13.60967853	      5.50434350	     -4.98596641	    -31.51579586	     -1.10957879	      2.28971667	      0.00000000	      6.88992811	      0.29470967	      0.27007810	     -9.55319137	     -1.37420583	     -6.74176722	      0.00000000	    -24.03438947	      1.95796861	     10.98503545
      7.06000000	      7.46236849	     -4.22371608	     -4.06301719	     -0.77826962	      0.93644130	      0.18042743	    -11.96807345	      4.94468371	     -5.29136564	    -34.66127020	     -4.73044390	      0.94209146	      0.00000000	      6.46203206	      0.64569380	      0.29360715	     -9.91797312	     -0.56457585	     -6.93852459	      0.00000000	    -23.93710506	      1.79676557	     10.67604776
      7.07000000	      7.38483313	     -4.02280438	     -4.27912354	     -0.76866655	      0.93697029	      0.17978170	    -10.20237525	      4.39672598	     -5.36212664	    -37.81162038	     -8.36319902	     -0.61996861	      0.00000000	      6.01656677	      0.98691075	      0.22566874	    -10.18224005	      0.22109861	     -7.08766023	      0.00000000	    -23.86494871	      1.61056470	     10.41156566
      7.08000000	      7.28455227	     -3.80687981	     -4.57469163	     -0.75928269	      0.93733249	      0.17930506	     -8.33715218	      3.87036822	     -5.22016474	    -40.92820404	    -11.72135090	     -2.29582561	      0.00000000	      5.57544480	      1.32915732	      0.08225291	    -10.38297844	      0.95486651	     -7.21334601	      0.00000000	    -23.80652333	      1.37670354	     10.14001073
      7.09000000	      7.20682185	     -3.62703591	     -4.92947853	     -0.75011687	      0.93763148	      0.17898496	     -6.46034960	      3.43223052	     -4.90825996	    -43.94075221	    -14.60025451	     -4.04437329	      0.00000000	      5.11592215	      1.62103580	     -0.13801911	    -10.58150386	      1.73647807	     -7.27204277	      0.00000000	    -23.82617052	      1.16014253	      9.98426036
      7.10000000	      7.13109952	     -3.44407061	     -5.30799863	     -0.74111683	      0.93786794	      0.17879962	     -4.57166418	      3.06228489	     -4.47473134	    -46.81651985	    -16.76203203	     -5.80960063	      0.00000000	      4.66177745	      1.90402852	     -0.40942907	    -10.77029407	      2.50266002	     -7.26223126	      0.00000000	    -23.87046193	      0.92007231	      9.79598875
      7.11000000	      7.07007365	     -3.28280521	     -5.67464166	     -0.73226276	      0.93810563	      0.17870242	     -2.71657685	      2.78676395	     -3.99329037	    -49.49307002	    -18.12253740	     -7.60070301	      0.00000000	      4.20505325	      2.15471609	     -0.70272213	    -10.96567996	      3.27227434	     -7.18393747	      0.00000000	    -23.94874734	      0.69844031	      9.59177222
